<svg xmlns="http://www.w3.org/2000/svg" width="20" height="20" viewBox="0 0 20 20" fill="none">
  <path fill-rule="evenodd" clip-rule="evenodd"
    d="M3.33379 3.4668C2.94719 3.4668 2.63379 3.7802 2.63379 4.1668C2.63379 4.5534 2.94719 4.8668 3.33379 4.8668H16.6671C17.0537 4.8668 17.3671 4.5534 17.3671 4.1668C17.3671 3.7802 17.0537 3.4668 16.6671 3.4668H3.33379ZM5.96714 10.0001C5.96714 9.61353 6.28054 9.30013 6.66714 9.30013L16.6671 9.30013C17.0537 9.30013 17.3671 9.61353 17.3671 10.0001C17.3671 10.3867 17.0537 10.7001 16.6671 10.7001L6.66714 10.7001C6.28054 10.7001 5.96714 10.3867 5.96714 10.0001ZM2.6338 15.8334C2.6338 15.4468 2.9472 15.1334 3.3338 15.1334H16.6671C17.0537 15.1334 17.3671 15.4468 17.3671 15.8334C17.3671 16.22 17.0537 16.5334 16.6671 16.5334H3.3338C2.9472 16.5334 2.6338 16.22 2.6338 15.8334Z"
    fill="white" />
</svg>