<svg xmlns="http://www.w3.org/2000/svg" width="24" height="24" viewBox="0 0 24 24" fill="none">
  <path fill-rule="evenodd" clip-rule="evenodd"
    d="M16.0214 1.29098L15.0633 3.02266C16.0257 3.50809 16.795 4.18414 17.3708 5.05229C17.9465 5.92112 18.2345 6.87038 18.2345 7.90162H5.75249C5.75249 6.87014 6.04048 5.92092 6.61621 5.05229C7.19194 4.18414 7.96573 3.50809 8.93729 3.02266L7.97913 1.29098C7.91599 1.17633 7.93836 1.0887 8.04644 1.0266C8.16321 0.973538 8.25315 1.00031 8.31628 1.10573L9.28784 2.85125C10.1424 2.48098 11.0466 2.29545 12.0003 2.29545C12.9537 2.29545 13.8579 2.48094 14.7128 2.85125L15.6843 1.10573C15.7471 1.00031 15.8371 0.973299 15.9541 1.0266C16.062 1.08842 16.0843 1.17633 16.0214 1.29098ZM9.15268 5.69382C9.29653 5.69382 9.42029 5.64318 9.5239 5.54142C9.62703 5.44014 9.67892 5.31913 9.6792 5.17796C9.6792 5.03702 9.62727 4.91625 9.5239 4.81449C9.42029 4.71321 9.29653 4.66257 9.15268 4.66257C9.00883 4.66257 8.88731 4.71321 8.7884 4.81449C8.68949 4.91601 8.64004 5.03702 8.64004 5.17796C8.64004 5.31937 8.68949 5.44014 8.7884 5.54142C8.88731 5.64318 9.00854 5.69382 9.15268 5.69382ZM14.8474 5.69382C14.991 5.69382 15.1125 5.64318 15.2116 5.54142C15.3106 5.44014 15.36 5.31913 15.36 5.17796C15.36 5.03702 15.3106 4.91625 15.2116 4.81449C15.1125 4.71321 14.9912 4.66257 14.8474 4.66257C14.7032 4.66257 14.5795 4.71321 14.4761 4.81449C14.3725 4.91601 14.3208 5.03702 14.3208 5.17796C14.3208 5.31937 14.3725 5.44014 14.4761 5.54142C14.5795 5.64318 14.7032 5.69382 14.8474 5.69382ZM2.9048 8.52271C3.17464 8.25834 3.5029 8.12615 3.8898 8.12615C4.26772 8.12615 4.59172 8.25834 4.8616 8.52271C5.13148 8.78709 5.2664 9.10429 5.2664 9.4746V15.1597C5.2664 15.5392 5.13347 15.8606 4.86834 16.1249C4.60268 16.3894 4.27641 16.5215 3.8898 16.5215C3.5029 16.5215 3.17464 16.3893 2.9048 16.1249C2.63492 15.8605 2.5 15.5392 2.5 15.1597V9.4746C2.5 9.10433 2.63496 8.78709 2.9048 8.52271ZM5.80605 17.1824C5.80605 17.5883 5.9499 17.9318 6.23765 18.2137C6.52564 18.4956 6.87627 18.6366 7.29021 18.6366H8.28885L8.30253 21.6381C8.30253 22.0171 8.43745 22.339 8.70729 22.6034C8.97713 22.8678 9.30117 23 9.67885 23C10.0655 23 10.394 22.8678 10.6638 22.6034C10.9337 22.339 11.0686 22.0172 11.0686 21.6381V18.6369H12.9308V21.6381C12.9308 22.0171 13.0657 22.339 13.3356 22.6034C13.6054 22.8678 13.9336 23 14.3206 23C14.7072 23 15.0357 22.8678 15.3056 22.6034C15.5754 22.339 15.7103 22.0172 15.7103 21.6381V18.6369H16.7224C17.1272 18.6369 17.4733 18.4959 17.7616 18.214C18.0493 17.932 18.1932 17.5885 18.1932 17.1827V8.37708H5.80605V17.1824ZM19.1386 8.51615C19.4085 8.25639 19.7323 8.12615 20.1102 8.12615C20.4969 8.12615 20.8254 8.25639 21.0952 8.51615C21.3651 8.77639 21.5 9.09602 21.5 9.4746V15.1597C21.5 15.5392 21.3651 15.8605 21.0952 16.1249C20.8254 16.3894 20.4969 16.5215 20.1102 16.5215C19.7325 16.5215 19.4085 16.3894 19.1386 16.1249C18.8688 15.8605 18.7339 15.5392 18.7339 15.1597V9.4746C18.7339 9.09606 18.8688 8.77639 19.1386 8.51615Z" />
</svg>