<svg xmlns="http://www.w3.org/2000/svg" width="24" height="24" viewBox="0 0 24 24" fill="none">
  <path
    d="M12.2672 5.57692C13.2656 5.57692 14.5172 4.90559 15.2625 4.01049C15.9375 3.1993 16.4297 2.06643 16.4297 0.933567C16.4297 0.779721 16.4156 0.625874 16.3875 0.5C15.2766 0.541958 13.9406 1.24126 13.1391 2.17832C12.5063 2.89161 11.9297 4.01049 11.9297 5.15734C11.9297 5.32518 11.9578 5.49301 11.9719 5.54895C12.0422 5.56294 12.1547 5.57692 12.2672 5.57692ZM8.75156 22.5C10.1156 22.5 10.7203 21.5909 12.4219 21.5909C14.1516 21.5909 14.5312 22.472 16.05 22.472C17.5406 22.472 18.5391 21.1014 19.4813 19.7587C20.5359 18.2203 20.9719 16.7098 21 16.6399C20.9016 16.6119 18.0469 15.451 18.0469 12.1923C18.0469 9.36713 20.2969 8.09441 20.4234 7.9965C18.9328 5.87063 16.6687 5.81469 16.05 5.81469C14.3766 5.81469 13.0125 6.82168 12.1547 6.82168C11.2266 6.82168 10.0031 5.87063 8.55469 5.87063C5.79844 5.87063 3 8.13636 3 12.4161C3 15.0734 4.04062 17.8846 5.32031 19.7028C6.41719 21.2413 7.37344 22.5 8.75156 22.5Z" />
</svg>