<svg xmlns="http://www.w3.org/2000/svg" width="24" height="24" viewBox="0 0 24 24" fill="none">
  <path fill-rule="evenodd" clip-rule="evenodd"
    d="M2.02734 11.25C2.41087 6.07745 6.72909 2 11.9996 2C11.1688 2 10.429 2.36421 9.82044 2.92113C9.21492 3.47525 8.70322 4.24878 8.28934 5.16315C7.87303 6.08292 7.54964 7.15868 7.33077 8.32611C7.15531 9.26194 7.04854 10.2485 7.01295 11.25H2.02734ZM2.02734 12.75H7.01295C7.04854 13.7515 7.15531 14.7381 7.33077 15.6739C7.54964 16.8413 7.87303 17.9171 8.28934 18.8368C8.70322 19.7512 9.21492 20.5247 9.82044 21.0789C10.429 21.6358 11.1688 22 11.9996 22C6.72909 22 2.41087 17.9226 2.02734 12.75Z"
    fill="#111522" />
  <path
    d="M11.9996 3.39535C11.7246 3.39535 11.3694 3.51236 10.9562 3.89042C10.5401 4.27126 10.1235 4.86815 9.75536 5.68137C9.38971 6.4892 9.0928 7.46441 8.88848 8.55419C8.72757 9.41242 8.62775 10.3222 8.59272 11.25H15.4066C15.3715 10.3222 15.2717 9.41242 15.1108 8.5542C14.9065 7.46441 14.6096 6.48921 14.2439 5.68137C13.8758 4.86815 13.4592 4.27126 13.043 3.89042C12.6299 3.51236 12.2747 3.39535 11.9996 3.39535Z"
    fill="#111522" />
  <path
    d="M8.88848 15.4458C9.0928 16.5356 9.38971 17.5108 9.75536 18.3186C10.1235 19.1319 10.5401 19.7287 10.9562 20.1096C11.3694 20.4876 11.7246 20.6047 11.9996 20.6047C12.2746 20.6047 12.6299 20.4876 13.043 20.1096C13.4592 19.7287 13.8758 19.1319 14.2439 18.3186C14.6096 17.5108 14.9065 16.5356 15.1108 15.4458C15.2717 14.5876 15.3715 13.6778 15.4066 12.75H8.59272C8.62775 13.6778 8.72757 14.5876 8.88848 15.4458Z"
    fill="#111522" />
  <path
    d="M11.9996 2C12.8305 2 13.5703 2.36421 14.1788 2.92113C14.7844 3.47525 15.2961 4.24878 15.7099 5.16315C16.1263 6.08292 16.4496 7.15868 16.6685 8.32612C16.844 9.26194 16.9507 10.2485 16.9863 11.25H21.9719C21.5884 6.07745 17.2702 2 11.9996 2Z"
    fill="#111522" />
  <path
    d="M16.6685 15.6739C16.4496 16.8413 16.1263 17.9171 15.7099 18.8368C15.2961 19.7512 14.7844 20.5247 14.1788 21.0789C13.5703 21.6358 12.8305 22 11.9996 22C17.2702 22 21.5884 17.9226 21.9719 12.75H16.9863C16.9507 13.7515 16.844 14.7381 16.6685 15.6739Z"
    fill="#111522" />
</svg>